<?xml version="1.0" encoding="UTF-8" standalone="no"?>
<!-- Created with Inkscape (http://www.inkscape.org/) -->

<svg
   version="1.1"
   id="svg2"
   width="666.66669"
   height="666.66669"
   viewBox="0 0 666.66669 666.66669"
   sodipodi:docname="9318692.ai"
   xmlns:inkscape="http://www.inkscape.org/namespaces/inkscape"
   xmlns:sodipodi="http://sodipodi.sourceforge.net/DTD/sodipodi-0.dtd"
   xmlns="http://www.w3.org/2000/svg"
   xmlns:svg="http://www.w3.org/2000/svg">
  <defs
     id="defs6">
    <clipPath
       clipPathUnits="userSpaceOnUse"
       id="clipPath18">
      <path
         d="M 0,500 H 500 V 0 H 0 Z"
         id="path16" />
    </clipPath>
    <clipPath
       clipPathUnits="userSpaceOnUse"
       id="clipPath26">
      <path
         d="M 29.0747,97.1886 H 471.711 V 35.8025 H 29.0747 Z"
         id="path24" />
    </clipPath>
    <clipPath
       clipPathUnits="userSpaceOnUse"
       id="clipPath398">
      <path
         d="m 352.451,219.532 h 99.58 v -99.58 h -99.58 z"
         id="path396" />
    </clipPath>
    <clipPath
       clipPathUnits="userSpaceOnUse"
       id="clipPath414">
      <path
         d="M 355.646,184.734 H 452.02 V 139.53 h -96.374 z"
         id="path412" />
    </clipPath>
    <clipPath
       clipPathUnits="userSpaceOnUse"
       id="clipPath430">
      <path
         d="m 352.569,197.848 h 94.952 v -39.797 h -94.952 z"
         id="path428" />
    </clipPath>
  </defs>
  <sodipodi:namedview
     id="namedview4"
     pagecolor="#ffffff"
     bordercolor="#000000"
     borderopacity="0.25"
     inkscape:showpageshadow="2"
     inkscape:pageopacity="0.0"
     inkscape:pagecheckerboard="0"
     inkscape:deskcolor="#d1d1d1" />
  <g
     id="g8"
     inkscape:groupmode="layer"
     inkscape:label="9318692"
     transform="matrix(1.3333333,0,0,-1.3333333,0,666.66667)">
    <path
       d="M 0,0 H 500 V 500 H 0 Z"
       style="fill:#ffffff;fill-opacity:1;fill-rule:nonzero;stroke:none"
       id="path10" />
    <g
       id="g12">
      <g
         id="g14"
         clip-path="url(#clipPath18)">
        <g
           id="g20">
          <g
             id="g22" />
          <g
             id="g34">
            <g
               clip-path="url(#clipPath26)"
               opacity="0.5"
               id="g32">
              <g
                 transform="translate(471.7113,66.4956)"
                 id="g30">
                <path
                   d="m 0,0 c 0,-16.951 -99.088,-30.693 -221.318,-30.693 -122.231,0 -221.319,13.742 -221.319,30.693 0,16.951 99.088,30.693 221.319,30.693 C -99.088,30.693 0,16.951 0,0"
                   style="fill:#f5f5f5;fill-opacity:1;fill-rule:nonzero;stroke:none"
                   id="path28" />
              </g>
            </g>
          </g>
        </g>
        <g
           id="g36"
           transform="translate(210.5723,121.6046)">
          <path
             d="m 0,0 c 0.043,3.152 -0.082,7.52 -0.834,12.65 -0.634,4.321 -2.658,18.124 -9.937,28.555 -11,15.766 -23.47,8.736 -36.252,25.035 -7.315,9.329 -5.258,14.216 -13.624,21.684 -7.39,6.596 -15.323,9.025 -23.775,10.415 -21.391,3.518 -56.288,0.218 -56.288,0.218 2.947,-33.824 14.316,-47.809 24.128,-54.334 13.771,-9.158 24.362,-3.549 36.635,-14.511 15.977,-14.27 5.489,-30.438 20.39,-45.286 0,0 6.523,-6.5 57.146,-16.121 z"
             style="fill:#f5f5f5;fill-opacity:1;fill-rule:nonzero;stroke:none"
             id="path38" />
        </g>
        <g
           id="g40"
           transform="translate(208.1618,89.9095)">
          <path
             d="m 0,0 c 0,0 -39.107,66.558 -54.004,79.602 -14.897,13.045 -84.295,50.65 -84.295,50.65"
             style="fill:none;stroke:#d6d6d6;stroke-width:0.466;stroke-linecap:round;stroke-linejoin:round;stroke-miterlimit:10;stroke-dasharray:none;stroke-opacity:1"
             id="path42" />
        </g>
        <g
           id="g44"
           transform="translate(120.0821,191.7772)">
          <path
             d="M 0,0 -43.683,-2.445"
             style="fill:none;stroke:#d6d6d6;stroke-width:0.466;stroke-linecap:round;stroke-linejoin:round;stroke-miterlimit:10;stroke-dasharray:none;stroke-opacity:1"
             id="path46" />
        </g>
        <g
           id="g48"
           transform="translate(129.1057,186.3711)">
          <path
             d="M 0,0 2.9,32.396"
             style="fill:none;stroke:#d6d6d6;stroke-width:0.466;stroke-linecap:round;stroke-linejoin:round;stroke-miterlimit:10;stroke-dasharray:none;stroke-opacity:1"
             id="path50" />
        </g>
        <g
           id="g52"
           transform="translate(148.9681,173.5356)">
          <path
             d="M 0,0 -37.808,-13.969"
             style="fill:none;stroke:#d6d6d6;stroke-width:0.466;stroke-linecap:round;stroke-linejoin:round;stroke-miterlimit:10;stroke-dasharray:none;stroke-opacity:1"
             id="path54" />
        </g>
        <g
           id="g56"
           transform="translate(164.964,156.9327)">
          <path
             d="M 0,0 4.865,24.562"
             style="fill:none;stroke:#d6d6d6;stroke-width:0.466;stroke-linecap:round;stroke-linejoin:round;stroke-miterlimit:10;stroke-dasharray:none;stroke-opacity:1"
             id="path58" />
        </g>
        <g
           id="g60"
           transform="translate(177.1652,139.5306)">
          <path
             d="M 0,0 -36.626,-6.689"
             style="fill:none;stroke:#d6d6d6;stroke-width:0.466;stroke-linecap:round;stroke-linejoin:round;stroke-miterlimit:10;stroke-dasharray:none;stroke-opacity:1"
             id="path62" />
        </g>
        <g
           id="g64"
           transform="translate(186.7186,124.8613)">
          <path
             d="M 0,0 13.784,36.908"
             style="fill:none;stroke:#d6d6d6;stroke-width:0.466;stroke-linecap:round;stroke-linejoin:round;stroke-miterlimit:10;stroke-dasharray:none;stroke-opacity:1"
             id="path66" />
        </g>
        <g
           id="g68"
           transform="translate(195.4129,110.9921)">
          <path
             d="M 0,0 -42.364,-6.245"
             style="fill:none;stroke:#d6d6d6;stroke-width:0.466;stroke-linecap:round;stroke-linejoin:round;stroke-miterlimit:10;stroke-dasharray:none;stroke-opacity:1"
             id="path70" />
        </g>
        <g
           id="g72"
           transform="translate(187.3202,116.3927)">
          <path
             d="m 0,0 c -1.165,2.929 -2.95,6.918 -5.606,11.371 -2.237,3.751 -9.383,15.732 -20.096,22.589 -16.19,10.364 -25.027,-0.897 -43.068,9.279 -10.325,5.824 -10.292,11.127 -20.877,14.83 -9.35,3.271 -17.61,2.483 -25.951,0.537 -21.111,-4.924 -52.098,-21.311 -52.098,-21.311 15.651,-30.13 31.502,-38.708 43.063,-40.988 16.225,-3.199 23.869,6.032 39.4,0.593 20.218,-7.08 16.706,-26.029 36.15,-34.055 0,0 8.512,-3.513 58.97,6.945 z"
             style="fill:#f5f5f5;fill-opacity:1;fill-rule:nonzero;stroke:none"
             id="path74" />
        </g>
        <g
           id="g76"
           transform="translate(197.2067,86.1826)">
          <path
             d="m 0,0 c 0,0 -61.577,46.558 -80.328,52.918 -18.752,6.361 -97.254,14.587 -97.254,14.587"
             style="fill:none;stroke:#d6d6d6;stroke-width:0.466;stroke-linecap:round;stroke-linejoin:round;stroke-miterlimit:10;stroke-dasharray:none;stroke-opacity:1"
             id="path78" />
        </g>
        <g
           id="g80"
           transform="translate(76.8799,146.6519)">
          <path
             d="M 0,0 -39.432,-18.955"
             style="fill:none;stroke:#d6d6d6;stroke-width:0.466;stroke-linecap:round;stroke-linejoin:round;stroke-miterlimit:10;stroke-dasharray:none;stroke-opacity:1"
             id="path82" />
        </g>
        <g
           id="g84"
           transform="translate(87.2846,145.1051)">
          <path
             d="M 0,0 -9.702,31.045"
             style="fill:none;stroke:#d6d6d6;stroke-width:0.466;stroke-linecap:round;stroke-linejoin:round;stroke-miterlimit:10;stroke-dasharray:none;stroke-opacity:1"
             id="path86" />
        </g>
        <g
           id="g88"
           transform="translate(110.5449,140.8356)">
          <path
             d="M 0,0 -29.598,-27.358"
             style="fill:none;stroke:#d6d6d6;stroke-width:0.466;stroke-linecap:round;stroke-linejoin:round;stroke-miterlimit:10;stroke-dasharray:none;stroke-opacity:1"
             id="path90" />
        </g>
        <g
           id="g92"
           transform="translate(131.672,131.6069)">
          <path
             d="M 0,0 -4.892,24.556"
             style="fill:none;stroke:#d6d6d6;stroke-width:0.466;stroke-linecap:round;stroke-linejoin:round;stroke-miterlimit:10;stroke-dasharray:none;stroke-opacity:1"
             id="path94" />
        </g>
        <g
           id="g96"
           transform="translate(149.598,120.1894)">
          <path
             d="M 0,0 -31.289,-20.18"
             style="fill:none;stroke:#d6d6d6;stroke-width:0.466;stroke-linecap:round;stroke-linejoin:round;stroke-miterlimit:10;stroke-dasharray:none;stroke-opacity:1"
             id="path98" />
        </g>
        <g
           id="g100"
           transform="translate(164.0327,110.2852)">
          <path
             d="M 0,0 -1.369,39.374"
             style="fill:none;stroke:#d6d6d6;stroke-width:0.466;stroke-linecap:round;stroke-linejoin:round;stroke-miterlimit:10;stroke-dasharray:none;stroke-opacity:1"
             id="path102" />
        </g>
        <g
           id="g104"
           transform="translate(177.3679,100.7919)">
          <path
             d="M 0,0 -36.761,-21.963"
             style="fill:none;stroke:#d6d6d6;stroke-width:0.466;stroke-linecap:round;stroke-linejoin:round;stroke-miterlimit:10;stroke-dasharray:none;stroke-opacity:1"
             id="path106" />
        </g>
        <g
           id="g108"
           transform="translate(329.8,85.6761)">
          <path
             d="m 0,0 h -133.337 l 12.841,88.171 h 107.655 z"
             style="fill:#ff92c9;fill-opacity:1;fill-rule:nonzero;stroke:none"
             id="path110" />
        </g>
        <g
           id="g112"
           transform="translate(428.915,158.3022)">
          <path
             d="m 0,0 h -331.567 c -8.424,0 -15.253,6.829 -15.253,15.253 v 208.882 c 0,8.424 6.829,15.254 15.253,15.254 H 0 c 8.424,0 15.253,-6.83 15.253,-15.254 V 15.253 C 15.253,6.829 8.424,0 0,0"
             style="fill:#fdb6d6;fill-opacity:1;fill-rule:nonzero;stroke:none"
             id="path114" />
        </g>
        <g
           id="g116"
           transform="translate(420.1295,183.4167)">
          <path
             d="m 0,0 h -313.996 c -8.424,0 -15.253,6.829 -15.253,15.253 v 176.56 c 0,8.424 6.829,15.253 15.253,15.253 H 0 c 8.424,0 15.253,-6.829 15.253,-15.253 V 15.253 C 15.253,6.829 8.424,0 0,0"
             style="fill:#ffdeef;fill-opacity:1;fill-rule:nonzero;stroke:none"
             id="path118" />
        </g>
        <g
           id="g120"
           transform="translate(358.0615,79.2557)">
          <path
             d="m 0,0 h -189.86 v 9.172 c 0,7.092 5.749,12.841 12.841,12.841 H -12.841 C -5.749,22.013 0,16.264 0,9.172 Z"
             style="fill:#fdb6d6;fill-opacity:1;fill-rule:nonzero;stroke:none"
             id="path122" />
        </g>
        <g
           id="g124"
           transform="translate(102.1129,183.4167)">
          <path
             d="M 0,0 H 315.669"
             style="fill:none;stroke:#262626;stroke-width:1;stroke-linecap:round;stroke-linejoin:round;stroke-miterlimit:10;stroke-dasharray:none;stroke-opacity:1"
             id="path126" />
        </g>
        <g
           id="g128"
           transform="translate(176.5586,83.8417)">
          <path
             d="m 0,0 v 4.815 c 0,2.913 2.361,5.274 5.274,5.274 h 142.395"
             style="fill:none;stroke:#262626;stroke-width:1;stroke-linecap:round;stroke-linejoin:round;stroke-miterlimit:10;stroke-dasharray:none;stroke-opacity:1"
             id="path130" />
        </g>
        <g
           id="g132"
           transform="translate(309.0937,151.2557)">
          <path
             d="M 0,0 5.045,-38.522"
             style="fill:none;stroke:#262626;stroke-width:1;stroke-linecap:round;stroke-linejoin:round;stroke-miterlimit:10;stroke-dasharray:none;stroke-opacity:1"
             id="path134" />
        </g>
        <g
           id="g136"
           transform="translate(267.3347,170.0804)">
          <path
             d="m 0,0 c 0,-4.08 -3.307,-7.387 -7.387,-7.387 -4.08,0 -7.388,3.307 -7.388,7.387 0,4.08 3.308,7.387 7.388,7.387 C -3.307,7.387 0,4.08 0,0"
             style="fill:#ffffff;fill-opacity:1;fill-rule:nonzero;stroke:none"
             id="path138" />
        </g>
        <g
           id="g140"
           transform="translate(365.0427,376.4277)">
          <path
             d="m 0,0 h 39.21 c 7.472,0 13.529,-6.057 13.529,-13.529 v -81.47"
             style="fill:none;stroke:#ffffff;stroke-width:1;stroke-linecap:round;stroke-linejoin:round;stroke-miterlimit:10;stroke-dasharray:none;stroke-opacity:1"
             id="path142" />
        </g>
        <g
           id="g144"
           transform="translate(383.2983,324.1129)">
          <path
             d="M 0,0 7.544,18.148 26.245,10.374 18.701,-7.774 Z m 11.668,26.507 c 2.265,5.448 4.504,9.663 6.717,12.642 2.214,2.979 5.096,5.355 8.649,7.127 2.077,1.087 4.241,1.865 6.496,2.337 2.252,0.47 4.396,1.069 6.432,1.794 2.032,0.724 3.903,1.708 5.612,2.947 1.706,1.241 3.117,3.198 4.231,5.878 1.88,4.524 1.949,8.207 0.204,11.044 -1.745,2.838 -4.327,4.967 -7.743,6.387 -4.897,2.036 -8.834,2.073 -11.812,0.117 -2.981,-1.957 -5.661,-5.148 -8.042,-9.574 l -17.87,7.429 c 1.881,4.524 4.328,8.328 7.342,11.408 3.011,3.079 6.419,5.346 10.219,6.8 3.798,1.453 7.902,2.077 12.312,1.868 4.406,-0.207 8.92,-1.271 13.539,-3.191 9.974,-4.146 17.002,-9.451 21.086,-15.914 4.081,-6.464 4.224,-14.266 0.424,-23.409 -1.23,-2.957 -2.605,-5.416 -4.126,-7.384 -1.523,-1.966 -3.259,-3.6 -5.206,-4.903 -1.95,-1.301 -4.129,-2.373 -6.535,-3.213 -2.409,-0.842 -5.065,-1.632 -7.972,-2.373 -2.686,-0.726 -4.93,-1.5 -6.732,-2.319 -1.804,-0.821 -3.338,-1.837 -4.596,-3.045 -1.262,-1.209 -2.321,-2.584 -3.176,-4.122 -0.858,-1.54 -1.708,-3.327 -2.552,-5.357 z"
             style="fill:#3897e9;fill-opacity:1;fill-rule:nonzero;stroke:none"
             id="path146" />
        </g>
        <g
           id="g148"
           transform="translate(285.9939,323.3842)">
          <path
             d="m 0,0 v 14.82 c 0,4.861 -3.941,8.802 -8.802,8.802 H -94.83 c -4.861,0 -8.802,-3.941 -8.802,-8.802 V 0 -98.732 c 0,-4.861 3.941,-8.802 8.802,-8.802 H 42.737 c 4.861,0 8.802,3.941 8.802,8.802 v 89.93 C 51.539,-3.941 47.598,0 42.737,0 Z"
             style="fill:#f5f5f5;fill-opacity:1;fill-rule:nonzero;stroke:none"
             id="path150" />
        </g>
        <g
           id="g152"
           transform="translate(277.2789,302.6835)">
          <path
             d="M 0,0 -17.332,-17.332 -34.663,0 -45.122,-10.459 -27.791,-27.79 -45.122,-45.122 -34.663,-55.581 -17.332,-38.249 0,-55.581 10.459,-45.122 -6.873,-27.79 10.459,-10.459 Z"
             style="fill:#d6d6d6;fill-opacity:1;fill-rule:nonzero;stroke:none"
             id="path154" />
        </g>
        <g
           id="g156"
           transform="translate(72.1568,80.111)">
          <path
             d="m 0,0 v 11.41 h -21.014 v -31.378 l 47.448,-0.761 v 5.705 z"
             style="fill:#f7a99c;fill-opacity:1;fill-rule:nonzero;stroke:none"
             id="path158" />
        </g>
        <g
           id="g160"
           transform="translate(100.271,59.382)">
          <path
             d="m 0,0 v 2.705 c 0,2.766 -1.517,5.309 -3.951,6.622 l -20.011,10.8 c -5.999,-1.639 -10.635,-1.41 -13.804,-0.872 -5.261,0.893 -10.289,3.283 -11.981,1.284 -0.484,-0.572 -0.542,-1.322 -0.523,-1.838 V 2.108 C -50.27,0.944 -49.326,0 -48.162,0 Z"
             style="fill:#ffc001;fill-opacity:1;fill-rule:nonzero;stroke:none"
             id="path162" />
        </g>
        <g
           id="g164"
           transform="translate(100.271,61.1886)">
          <path
             d="M 0,0 H -50.27"
             style="fill:none;stroke:#3897e9;stroke-width:0.733;stroke-linecap:round;stroke-linejoin:round;stroke-miterlimit:10;stroke-dasharray:none;stroke-opacity:1"
             id="path166" />
        </g>
        <g
           id="g168"
           transform="translate(89.195,72.327)">
          <path
             d="M 0,0 -2.816,-3.722"
             style="fill:none;stroke:#3897e9;stroke-width:0.733;stroke-linecap:round;stroke-linejoin:round;stroke-miterlimit:10;stroke-dasharray:none;stroke-opacity:1"
             id="path170" />
        </g>
        <g
           id="g172"
           transform="translate(87.1321,73.4917)">
          <path
             d="M 0,0 -2.816,-3.722"
             style="fill:none;stroke:#3897e9;stroke-width:0.733;stroke-linecap:round;stroke-linejoin:round;stroke-miterlimit:10;stroke-dasharray:none;stroke-opacity:1"
             id="path174" />
        </g>
        <g
           id="g176"
           transform="translate(84.9765,74.5712)">
          <path
             d="M 0,0 -2.816,-3.722"
             style="fill:none;stroke:#3897e9;stroke-width:0.733;stroke-linecap:round;stroke-linejoin:round;stroke-miterlimit:10;stroke-dasharray:none;stroke-opacity:1"
             id="path178" />
        </g>
        <g
           id="g180"
           transform="translate(81.8027,76.5439)">
          <path
             d="M 0,0 C -3.41,-1.301 -9.038,-2.969 -16.143,-2.931 -22.998,-2.893 -28.44,-1.282 -31.801,0"
             style="fill:none;stroke:#3897e9;stroke-width:0.733;stroke-linecap:round;stroke-linejoin:round;stroke-miterlimit:10;stroke-dasharray:none;stroke-opacity:1"
             id="path182" />
        </g>
        <g
           id="g184"
           transform="translate(132.0619,80.111)">
          <path
             d="m 0,0 v 11.41 h -21.014 v -31.378 l 47.448,-0.761 v 5.705 z"
             style="fill:#f7a99c;fill-opacity:1;fill-rule:nonzero;stroke:none"
             id="path186" />
        </g>
        <g
           id="g188"
           transform="translate(160.1761,59.382)">
          <path
             d="m 0,0 v 2.705 c 0,2.766 -1.517,5.309 -3.951,6.622 l -20.011,10.8 c -5.999,-1.639 -10.635,-1.41 -13.804,-0.872 -5.261,0.893 -10.289,3.283 -11.981,1.284 -0.483,-0.572 -0.541,-1.322 -0.523,-1.838 V 2.108 C -50.27,0.944 -49.326,0 -48.162,0 Z"
             style="fill:#ffc001;fill-opacity:1;fill-rule:nonzero;stroke:none"
             id="path190" />
        </g>
        <g
           id="g192"
           transform="translate(160.1761,61.1886)">
          <path
             d="M 0,0 H -50.27"
             style="fill:none;stroke:#3897e9;stroke-width:0.733;stroke-linecap:round;stroke-linejoin:round;stroke-miterlimit:10;stroke-dasharray:none;stroke-opacity:1"
             id="path194" />
        </g>
        <g
           id="g196"
           transform="translate(149.1001,72.327)">
          <path
             d="M 0,0 -2.816,-3.722"
             style="fill:none;stroke:#3897e9;stroke-width:0.733;stroke-linecap:round;stroke-linejoin:round;stroke-miterlimit:10;stroke-dasharray:none;stroke-opacity:1"
             id="path198" />
        </g>
        <g
           id="g200"
           transform="translate(147.0372,73.4917)">
          <path
             d="M 0,0 -2.816,-3.722"
             style="fill:none;stroke:#3897e9;stroke-width:0.733;stroke-linecap:round;stroke-linejoin:round;stroke-miterlimit:10;stroke-dasharray:none;stroke-opacity:1"
             id="path202" />
        </g>
        <g
           id="g204"
           transform="translate(144.8816,74.5712)">
          <path
             d="M 0,0 -2.816,-3.722"
             style="fill:none;stroke:#3897e9;stroke-width:0.733;stroke-linecap:round;stroke-linejoin:round;stroke-miterlimit:10;stroke-dasharray:none;stroke-opacity:1"
             id="path206" />
        </g>
        <g
           id="g208"
           transform="translate(141.7078,76.5439)">
          <path
             d="M 0,0 C -3.41,-1.301 -9.038,-2.969 -16.143,-2.931 -22.998,-2.893 -28.44,-1.282 -31.801,0"
             style="fill:none;stroke:#3897e9;stroke-width:0.733;stroke-linecap:round;stroke-linejoin:round;stroke-miterlimit:10;stroke-dasharray:none;stroke-opacity:1"
             id="path210" />
        </g>
        <g
           id="g212"
           transform="translate(119.9858,242.6155)">
          <path
             d="m 0,0 c 0,0 17.306,-54.961 19.968,-62.568 2.663,-7.607 5.135,-18.256 4.565,-27.575 -0.571,-9.318 -9.509,-66.751 -9.509,-66.751 H -11.03 c 0,0 -1.84,60.665 -2.727,65.42 -0.886,4.754 -8.493,31.647 -8.493,31.647 0,0 -2.473,-31.457 -4.565,-39.825 -2.092,-8.367 -18.827,-58.193 -18.827,-58.193 H -69.984 L -59.715,0 Z"
             style="fill:#3897e9;fill-opacity:1;fill-rule:nonzero;stroke:none"
             id="path214" />
        </g>
        <g
           id="g216"
           transform="translate(159.7046,276.1195)">
          <path
             d="m 0,0 c 0,0 8.263,7.01 10.354,11.596 1.791,3.924 4.292,10.82 4.976,12.727 0.104,0.288 0.405,0.447 0.702,0.377 l 0.496,-0.118 c 1.533,-0.363 2.479,-1.902 2.111,-3.435 l -0.825,-3.437 8.731,5.734 c 0.749,0.492 1.758,0.25 2.202,-0.529 0.392,-0.687 0.205,-1.558 -0.434,-2.024 l -5.759,-4.2 9.568,4.492 c 0.74,0.348 1.624,0.068 2.029,-0.643 l 0.012,-0.021 c 0.43,-0.753 0.167,-1.711 -0.585,-2.14 l 0.107,0.031 c 0.831,0.239 1.712,-0.164 2.074,-0.949 0.42,-0.908 -0.006,-1.982 -0.933,-2.357 l -0.609,-0.246 c 0.794,0.248 1.628,-0.247 1.791,-1.063 v 0 C 36.245,12.604 35.671,11.401 34.593,10.84 32.018,9.5 30.347,9.147 27.9,7.315 25.963,5.866 26.641,4.944 24.575,2.3 22.06,-0.919 19.916,-1.009 15.582,-4.196 13.936,-5.406 11.663,-7.292 9.261,-10.099 Z"
             style="fill:#f7a99c;fill-opacity:1;fill-rule:nonzero;stroke:none"
             id="path218" />
        </g>
        <g
           id="g220"
           transform="translate(188.5912,298.6904)">
          <path
             d="m 0,0 c 0,0 0.439,-0.89 -0.395,-1.524 -0.833,-0.634 -7.339,-5.45 -7.339,-5.45"
             style="fill:none;stroke:#262626;stroke-width:0.415;stroke-linecap:round;stroke-linejoin:round;stroke-miterlimit:10;stroke-dasharray:none;stroke-opacity:1"
             id="path222" />
        </g>
        <g
           id="g224"
           transform="translate(193.2822,294.4985)">
          <path
             d="M 0,0 -8.958,-4.158"
             style="fill:none;stroke:#262626;stroke-width:0.415;stroke-linecap:round;stroke-linejoin:round;stroke-miterlimit:10;stroke-dasharray:none;stroke-opacity:1"
             id="path226" />
        </g>
        <g
           id="g228"
           transform="translate(194.2044,291.0333)">
          <path
             d="M 0,0 -9.006,-4.145"
             style="fill:none;stroke:#262626;stroke-width:0.415;stroke-linecap:round;stroke-linejoin:round;stroke-miterlimit:10;stroke-dasharray:none;stroke-opacity:1"
             id="path230" />
        </g>
        <g
           id="g232"
           transform="translate(176.8577,300.471)">
          <path
             d="m 0,0 c 0,0 1.574,-0.996 1.53,-2.1 -0.044,-1.104 -1.631,-8.196 -1.631,-8.196"
             style="fill:none;stroke:#262626;stroke-width:0.415;stroke-linecap:round;stroke-linejoin:round;stroke-miterlimit:10;stroke-dasharray:none;stroke-opacity:1"
             id="path234" />
        </g>
        <g
           id="g236"
           transform="translate(108.9557,85.7211)">
          <path
             d="m 0,0 c 0,0 -2.358,62.204 -2.542,63.812 -0.185,1.608 -9.05,34.532 -9.05,34.532 l 1.571,14.552 c 0,0 17.885,-44.026 17.885,-46.93 C 7.864,63.061 9.851,0 9.851,0 Z"
             style="fill:#1775af;fill-opacity:1;fill-rule:nonzero;stroke:none"
             id="path238" />
        </g>
        <g
           id="g240"
           transform="translate(94.1863,146.7719)">
          <path
             d="M 0,0 6.355,68.743"
             style="fill:none;stroke:#262626;stroke-width:0.415;stroke-linecap:round;stroke-linejoin:round;stroke-miterlimit:10;stroke-dasharray:none;stroke-opacity:1"
             id="path242" />
        </g>
        <g
           id="g244"
           transform="translate(136.0107,90.9992)">
          <path
             d="m 0,0 h -27.256 l 0.201,-5.278 h 26.054 z"
             style="fill:#262626;fill-opacity:1;fill-rule:nonzero;stroke:none"
             id="path246" />
        </g>
        <g
           id="g248"
           transform="translate(75.9227,89.4852)">
          <path
             d="m 0,0 h -25.615 l -0.306,-4.715 h 24.342 z"
             style="fill:#262626;fill-opacity:1;fill-rule:nonzero;stroke:none"
             id="path250" />
        </g>
        <g
           id="g252"
           transform="translate(137.5974,174.6132)">
          <path
             d="M 0,0 C 3.449,-10.857 3.996,-22.621 1.568,-33.751"
             style="fill:none;stroke:#ffffff;stroke-width:0.415;stroke-linecap:round;stroke-linejoin:round;stroke-miterlimit:10;stroke-dasharray:none;stroke-opacity:1"
             id="path254" />
        </g>
        <g
           id="g256"
           transform="translate(166.5742,283.5123)">
          <path
             d="m 0,0 c 0,0 -4.412,-3.397 -9.438,-4.279 -5.889,-1.033 -10.996,2.454 -12.367,3.391 -3.734,2.55 -5.112,5.57 -7.582,9.106 -7.314,10.469 -11.857,16.974 -18.217,20.657 -3.287,1.904 -8.784,4.053 -17.45,3.388 -1.943,0.698 -5.042,0.145 -7.119,0.145 h -5.177 c -3.402,-0.408 -28.458,-3.319 -32.718,0.593 -1.679,1.541 -1.706,3.06 -1.706,3.06 -0.022,1.256 0.771,2.563 2.847,4.144 5.073,3.864 14.378,6.747 17.496,7.666 l -1.902,14.204 h -4.184 c -4.183,0 -19.017,-2.472 -27.004,-5.263 -11.199,-3.912 -17.199,-6.769 -20.159,-13.256 -3.709,-8.128 0.242,-16.865 1.268,-19.135 5.142,-11.374 16.544,-15.976 23.431,-18.756 6.074,-2.452 11.481,-3.438 15.238,-3.875 l -3.233,-51.728 59.456,-3.233 h 8.929 c 0.684,7.905 -2.736,32.462 -2.293,40.484 7.592,-10.564 20.165,-15.898 32.102,-13.605 13.215,2.539 19.861,13.316 20.943,15.134 C 6.548,-2.06 0,0 0,0"
             style="fill:#4450e4;fill-opacity:1;fill-rule:nonzero;stroke:none"
             id="path258" />
        </g>
        <g
           id="g260"
           transform="translate(92.7029,287.2588)">
          <path
             d="M 0,0 H -0.573 V 24.688 H 3.172 V 3.172 C 3.172,1.42 1.752,0 0,0"
             style="fill:#ffffff;fill-opacity:1;fill-rule:nonzero;stroke:none"
             id="path262" />
        </g>
        <g
           id="g264"
           transform="translate(127.073,233.0677)">
          <path
             d="M 0,0 C -2.048,-0.38 -30.191,-5.099 -50.077,15.898 -66.857,33.615 -64.873,56.036 -64.523,59.352 -65.567,43.8 -66.612,28.248 -67.656,12.696 h -0.057 L -68.475,0.507 -59.155,0 -59.161,0.066 c 13.899,-1.099 28.245,-1.921 43.014,-2.405 5.409,-0.177 10.762,-0.305 16.057,-0.387 C -0.06,-1.817 -0.03,-0.909 0,0"
             style="fill:#3748c4;fill-opacity:1;fill-rule:nonzero;stroke:none"
             id="path266" />
        </g>
        <g
           id="g268"
           transform="translate(111.3066,334.6073)">
          <path
             d="m 0,0 c 1.019,5.23 0.86,9.318 0.564,11.931 -0.224,1.988 -0.57,3.493 -1.626,4.924 -0.223,0.302 -1.977,2.608 -4.987,3.21 -3.601,0.721 -4.51,-1.894 -9.63,-2.527 -4.416,-0.546 -5.286,1.207 -8.256,-0.052 -3.244,-1.375 -4.845,-4.586 -5.331,-5.561 -0.212,-0.425 -1.269,-2.604 -1.376,-5.656 -0.084,-2.417 0.468,-4.235 0.686,-4.978 0.92,-3.131 2.003,-7.893 3.327,-15.506 0.691,0.026 1.383,0.052 2.074,0.077 C -16.37,-9.425 -8.185,-4.713 0,0"
             style="fill:#262626;fill-opacity:1;fill-rule:nonzero;stroke:none"
             id="path270" />
        </g>
        <g
           id="g272"
           transform="translate(93.7983,308.885)">
          <path
             d="M 0,0 V 0 C -3.868,-0.015 -7.015,3.109 -7.029,6.976 L -7.087,22.046 6.919,22.099 6.976,7.029 C 6.991,3.162 3.867,0.015 0,0"
             style="fill:#f7a99c;fill-opacity:1;fill-rule:nonzero;stroke:none"
             id="path274" />
        </g>
        <g
           id="g276"
           transform="translate(100.7585,320.1326)">
          <path
             d="m 0,0 -9.121,4.686 c 0.092,-0.79 0.61,-4.489 3.864,-7.044 2.077,-1.632 4.26,-2.004 5.269,-2.11 z"
             style="fill:#ff7769;fill-opacity:1;fill-rule:nonzero;stroke:none"
             id="path278" />
        </g>
        <g
           id="g280"
           transform="translate(86.3717,335.5999)">
          <path
             d="m 0,0 c -0.044,0.228 -0.644,0.571 -0.829,0.689 -0.311,0.199 -0.648,0.358 -1,0.472 -0.683,0.22 -1.434,0.271 -2.136,0.11 -1.396,-0.32 -2.634,-1.494 -2.867,-2.931 -0.135,-0.834 0.058,-1.698 0.416,-2.464 0.538,-1.152 1.45,-2.12 2.551,-2.754 0.913,-0.526 1.952,-0.824 3.002,-0.886 0.211,-0.013 2.363,0.037 2.347,0.119 C 0.989,-5.096 0.495,-2.548 0,0"
             style="fill:#f7a99c;fill-opacity:1;fill-rule:nonzero;stroke:none"
             id="path282" />
        </g>
        <g
           id="g284"
           transform="translate(84.4518,335.454)">
          <path
             d="m 0,0 c 0.166,-1.124 1.154,-7.055 6.5,-11.245 0.984,-0.772 7.531,-5.903 13.521,-3.399 7.696,3.218 6.857,15.86 6.803,16.544 -0.184,2.315 -0.724,9.132 -6.37,12.769 -4.607,2.969 -9.6,1.877 -10.308,1.711 C 9.4,16.204 4.647,15.005 1.738,10.345 -0.901,6.115 -0.271,1.84 0,0"
             style="fill:#f7a99c;fill-opacity:1;fill-rule:nonzero;stroke:none"
             id="path286" />
        </g>
        <g
           id="g288"
           transform="translate(106.907,337.3456)">
          <path
             d="M 0,0 C 0.124,-0.987 0.885,-1.704 1.7,-1.602 2.515,-1.499 3.075,-0.616 2.951,0.371 2.827,1.357 2.066,2.075 1.251,1.972 0.436,1.87 -0.124,0.987 0,0"
             style="fill:#262626;fill-opacity:1;fill-rule:nonzero;stroke:none"
             id="path290" />
        </g>
        <g
           id="g292"
           transform="translate(98.0134,336.2287)">
          <path
             d="M 0,0 C 0.124,-0.987 0.885,-1.704 1.7,-1.602 2.515,-1.499 3.075,-0.616 2.951,0.371 2.827,1.358 2.066,2.075 1.251,1.972 0.436,1.87 -0.124,0.987 0,0"
             style="fill:#262626;fill-opacity:1;fill-rule:nonzero;stroke:none"
             id="path294" />
        </g>
        <g
           id="g296"
           transform="translate(104.2219,335.8686)">
          <path
             d="M 0,0 1.363,-1.842 C 1.614,-2.18 1.52,-2.661 1.16,-2.88 l -1.251,-0.762"
             style="fill:none;stroke:#262626;stroke-width:0.733;stroke-linecap:round;stroke-linejoin:round;stroke-miterlimit:10;stroke-dasharray:none;stroke-opacity:1"
             id="path298" />
        </g>
        <g
           id="g300"
           transform="translate(95.0301,331.5798)">
          <path
             d="M 0,0 C 0.139,-1.107 1.15,-1.893 2.257,-1.753 3.365,-1.614 4.15,-0.604 4.01,0.504 3.871,1.611 2.861,2.396 1.753,2.257 0.646,2.118 -0.139,1.107 0,0"
             style="fill:#ff7769;fill-opacity:1;fill-rule:nonzero;stroke:none"
             id="path302" />
        </g>
        <g
           id="g304"
           transform="translate(85.4321,330.5355)">
          <path
             d="M 0,0 C 0.007,0.222 0.025,1.726 -1.181,2.811 -2.126,3.66 -3.226,3.716 -3.526,3.721"
             style="fill:none;stroke:#262626;stroke-width:0.733;stroke-linecap:round;stroke-linejoin:round;stroke-miterlimit:10;stroke-dasharray:none;stroke-opacity:1"
             id="path306" />
        </g>
        <g
           id="g308"
           transform="translate(84.3678,333.0494)">
          <path
             d="M 0,0 C -0.067,0.01 -0.876,0.123 -1.441,-0.489 -1.905,-0.991 -1.863,-1.613 -1.854,-1.717"
             style="fill:none;stroke:#262626;stroke-width:0.733;stroke-linecap:round;stroke-linejoin:round;stroke-miterlimit:10;stroke-dasharray:none;stroke-opacity:1"
             id="path310" />
        </g>
        <g
           id="g312"
           transform="translate(84.2749,336.8345)">
          <path
             d="m 0,0 c 0,0 0.995,-0.088 1.745,-0.832 0.75,-0.745 1.016,-2.02 1.016,-2.02 1.917,0.233 6.309,1.042 10.292,4.499 2.159,1.875 3.476,3.901 4.253,5.362 0.726,-0.654 1.966,-1.634 3.719,-2.39 2.287,-0.986 5.143,-1.458 5.523,-0.69 0.07,0.142 -0.008,0.553 -0.164,1.377 -0.056,0.298 -0.115,0.739 -0.26,1.16 -0.283,0.827 -0.65,1.624 -1.09,2.378 -0.88,1.511 -2.051,2.852 -3.429,3.927 -0.896,0.698 -1.88,1.284 -2.925,1.728 C 15.36,15.911 10.75,15.912 6.783,13.796 6.782,13.796 2.352,11.434 0.4,6.81 -0.271,5.22 -0.44,3.632 -0.482,3.081 -0.567,1.99 -0.443,1.276 -0.277,0.728 -0.184,0.419 -0.079,0.17 0,0"
             style="fill:#262626;fill-opacity:1;fill-rule:nonzero;stroke:none"
             id="path314" />
        </g>
        <g
           id="g316"
           transform="translate(110.227,334.7759)">
          <path
             d="M 0,0 C 0.383,0.048 0.752,-0.021 1.08,-0.169 1.041,-1.254 0.936,-2.57 0.698,-3.966 0.633,-3.981 0.571,-4.002 0.504,-4.01 -0.604,-4.15 -1.614,-3.365 -1.753,-2.257 -1.893,-1.15 -1.107,-0.139 0,0"
             style="fill:#ff7769;fill-opacity:1;fill-rule:nonzero;stroke:none"
             id="path318" />
        </g>
        <g
           id="g320"
           transform="translate(95.3972,351.5773)">
          <path
             d="m 0,0 c -0.658,0.256 -1.622,0.605 -2.809,0.946 -2.602,0.746 -3.902,1.119 -5.087,0.967 -3.466,-0.446 -5.457,-5.013 -6.292,-6.929 -0.632,-1.45 -1.666,-3.911 -1.118,-6.994 0.245,-1.371 0.727,-2.445 1.112,-3.153"
             style="fill:none;stroke:#262626;stroke-width:0.25;stroke-linecap:round;stroke-linejoin:round;stroke-miterlimit:10;stroke-dasharray:none;stroke-opacity:1"
             id="path322" />
        </g>
        <g
           id="g324"
           transform="translate(95.3972,351.9886)">
          <path
             d="M 0,0 C 1.172,0.512 2.425,0.927 3.554,1.514 4.739,2.13 5.774,2.931 7.043,3.404 8.376,3.9 9.864,4.1 11.225,3.687 12.398,3.331 13.4,2.547 14.228,1.643 c 1.115,-1.219 1.964,-2.688 2.406,-4.279 0.853,-3.066 0.091,-6.261 -0.411,-9.317"
             style="fill:none;stroke:#262626;stroke-width:0.25;stroke-linecap:round;stroke-linejoin:round;stroke-miterlimit:10;stroke-dasharray:none;stroke-opacity:1"
             id="path326" />
        </g>
        <g
           id="g328"
           transform="translate(105.7261,328.0076)">
          <path
             d="m 0,0 c 0,-0.996 -0.97,-1.803 -2.167,-1.803 -1.196,0 -2.166,0.807 -2.166,1.803 0,0.996 0.97,1.803 2.166,1.803 C -0.97,1.803 0,0.996 0,0"
             style="fill:#ffffff;fill-opacity:1;fill-rule:nonzero;stroke:none"
             id="path330" />
        </g>
        <g
           id="g332"
           transform="translate(73.5677,343.1504)">
          <path
             d="m 0,0 4.001,2.437 c 0,0 0.817,3.525 1.928,4.27 1.111,0.745 7.015,3.038 7.015,3.038 l 0.86,-0.802 c 0,0 -4.62,-4.22 -5.577,-6.094 C 7.269,0.975 7.088,-4.242 7.088,-4.242 l -4.52,-5.844 -1.106,-0.838 z"
             style="fill:#f7a99c;fill-opacity:1;fill-rule:nonzero;stroke:none"
             id="path334" />
        </g>
        <g
           id="g336"
           transform="translate(62.5501,290.1748)">
          <path
             d="M 0,0 -2.104,-27.033"
             style="fill:none;stroke:#262626;stroke-width:0.415;stroke-linecap:round;stroke-linejoin:round;stroke-miterlimit:10;stroke-dasharray:none;stroke-opacity:1"
             id="path338" />
        </g>
        <g
           id="g340"
           transform="translate(123.6584,287.9646)">
          <path
             d="M 0,0 1.612,-29.826"
             style="fill:none;stroke:#262626;stroke-width:0.415;stroke-linecap:round;stroke-linejoin:round;stroke-miterlimit:10;stroke-dasharray:none;stroke-opacity:1"
             id="path342" />
        </g>
        <g
           id="g344"
           transform="translate(31.2888,330.5355)">
          <path
             d="m 0,0 c -0.836,-0.665 -5.16,-4.242 -5.86,-10.561 -0.762,-6.884 3.379,-11.596 4.026,-12.308"
             style="fill:none;stroke:#ffffff;stroke-width:0.415;stroke-linecap:round;stroke-linejoin:round;stroke-miterlimit:10;stroke-dasharray:none;stroke-opacity:1"
             id="path346" />
        </g>
        <g
           id="g348"
           transform="translate(134.0151,268.8384)">
          <path
             d="m 0,0 c 1.112,-1.235 5.436,-5.742 12.702,-6.724 6.892,-0.932 12.032,1.899 13.515,2.788"
             style="fill:none;stroke:#ffffff;stroke-width:0.415;stroke-linecap:round;stroke-linejoin:round;stroke-miterlimit:10;stroke-dasharray:none;stroke-opacity:1"
             id="path350" />
        </g>
        <g
           id="g352"
           transform="translate(322.939,245.1554)">
          <path
             d="M 0,0 9.275,4.958 23.033,2.436 29.912,9.774 46.192,5.417 55.25,17.799 71.424,7.885 65.921,42.848 44.579,57.791 -4.473,50.071 c -1.836,-0.289 -3.091,-2.012 -2.802,-3.849 z"
             style="fill:#f5f5f5;fill-opacity:1;fill-rule:nonzero;stroke:none"
             id="path354" />
        </g>
        <g
           id="g356"
           transform="translate(372.503,285.429)">
          <path
             d="M 0,0 16.357,2.574 -4.985,17.518 -2.517,1.832 C -2.328,0.631 -1.201,-0.189 0,0"
             style="fill:#d6d6d6;fill-opacity:1;fill-rule:nonzero;stroke:none"
             id="path358" />
        </g>
        <g
           id="g360"
           transform="translate(367.5177,302.9465)">
          <path
             d="m 0,0 2.469,-15.685 c 0.189,-1.201 1.315,-2.022 2.516,-1.833 l 16.357,2.575"
             style="fill:none;stroke:#262626;stroke-width:0.274;stroke-linecap:round;stroke-linejoin:round;stroke-miterlimit:10;stroke-dasharray:none;stroke-opacity:1"
             id="path362" />
        </g>
        <g
           id="g364"
           transform="translate(329.5508,199.2483)">
          <path
             d="M 0,0 C 0.289,-1.837 2.012,-3.091 3.849,-2.802 L 68.106,7.311 c 1.837,0.289 3.091,2.013 2.802,3.849 L 64.812,49.894 48.638,59.808 39.58,47.426 23.3,51.783 16.421,44.445 2.663,46.967 -6.612,42.009 Z"
             style="fill:#f5f5f5;fill-opacity:1;fill-rule:nonzero;stroke:none"
             id="path366" />
        </g>
        <g
           id="g368"
           transform="translate(322.9518,245.1554)">
          <path
             d="M 0,0 9.275,4.958 23.033,2.436 29.912,9.774 46.192,5.417 55.25,17.799 71.424,7.885 65.921,42.848 44.579,57.791 -4.473,50.071 c -1.836,-0.289 -3.091,-2.012 -2.802,-3.849 z"
             style="fill:none;stroke:#262626;stroke-width:0.274;stroke-linecap:round;stroke-linejoin:round;stroke-miterlimit:10;stroke-dasharray:none;stroke-opacity:1"
             id="path370" />
        </g>
        <g
           id="g372"
           transform="translate(329.5636,199.2483)">
          <path
             d="M 0,0 C 0.289,-1.837 2.012,-3.091 3.849,-2.802 L 68.106,7.311 c 1.837,0.289 3.091,2.013 2.802,3.849 L 64.812,49.894 48.638,59.808 39.58,47.426 23.3,51.783 16.421,44.445 2.663,46.967 -6.612,42.009 Z"
             style="fill:none;stroke:#262626;stroke-width:0.274;stroke-linecap:round;stroke-linejoin:round;stroke-miterlimit:10;stroke-dasharray:none;stroke-opacity:1"
             id="path374" />
        </g>
        <g
           id="g376"
           transform="translate(74.3611,353.9031)">
          <path
             d="m 0,0 -1.623,-1.548 -14.347,12.955 4.13,3.939 z"
             style="fill:#ff7129;fill-opacity:1;fill-rule:nonzero;stroke:none"
             id="path378" />
        </g>
        <g
           id="g380"
           transform="translate(77.906,356.5586)">
          <path
             d="m 0,0 -2.205,-0.408 -4.921,18.694 5.612,1.037 z"
             style="fill:#ff7129;fill-opacity:1;fill-rule:nonzero;stroke:none"
             id="path382" />
        </g>
        <g
           id="g384"
           transform="translate(70.2597,350.3769)">
          <path
             d="m 0,0 -0.184,-2.235 -19.33,0.146 0.468,5.688 z"
             style="fill:#ff7129;fill-opacity:1;fill-rule:nonzero;stroke:none"
             id="path386" />
        </g>
        <g
           id="g388"
           transform="translate(301.2089,66.9397)">
          <path
             d="M 0,0 V 0 C -4.85,4.767 -4.918,12.563 -0.151,17.413 L 56.542,75.1 74.106,57.838 17.413,0.151 C 12.646,-4.699 4.85,-4.767 0,0"
             style="fill:#ff7129;fill-opacity:1;fill-rule:nonzero;stroke:none"
             id="path390" />
        </g>
        <g
           id="g392">
          <g
             id="g394" />
          <g
             id="g406">
            <g
               clip-path="url(#clipPath398)"
               opacity="0.199997"
               id="g404">
              <g
                 transform="translate(437.7521,134.8425)"
                 id="g402">
                <path
                   d="m 0,0 c -19.274,-19.612 -50.798,-19.886 -70.411,-0.611 -19.612,19.274 -19.886,50.798 -0.611,70.41 19.274,19.612 50.798,19.886 70.411,0.612 C 19.001,51.136 19.275,19.612 0,0"
                   style="fill:#dcf0ff;fill-opacity:1;fill-rule:nonzero;stroke:none"
                   id="path400" />
              </g>
            </g>
          </g>
        </g>
        <g
           id="g408">
          <g
             id="g410" />
          <g
             id="g422">
            <g
               clip-path="url(#clipPath414)"
               opacity="0.5"
               id="g420">
              <g
                 transform="translate(355.6464,152.1945)"
                 id="g418">
                <path
                   d="m 0,0 c 1.679,-4.467 4.019,-8.739 7.024,-12.665 l 89.35,30.905 c -0.067,4.831 -0.836,9.651 -2.299,14.299 z"
                   style="fill:#ffffff;fill-opacity:1;fill-rule:nonzero;stroke:none"
                   id="path416" />
              </g>
            </g>
          </g>
        </g>
        <g
           id="g424">
          <g
             id="g426" />
          <g
             id="g438">
            <g
               clip-path="url(#clipPath430)"
               opacity="0.5"
               id="g436">
              <g
                 transform="translate(352.5687,166.4512)"
                 id="g434">
                <path
                   d="M 0,0 C 0.186,-2.825 0.613,-5.635 1.279,-8.4 L 94.952,24 c -1.168,2.555 -2.559,5.031 -4.181,7.397 z"
                   style="fill:#ffffff;fill-opacity:1;fill-rule:nonzero;stroke:none"
                   id="path432" />
              </g>
            </g>
          </g>
        </g>
        <g
           id="g440"
           transform="translate(369.0713,135.9913)">
          <path
             d="m 0,0 c -18.64,18.319 -18.9,48.28 -0.581,66.921 18.319,18.64 48.28,18.9 66.92,0.581 C 84.979,49.183 85.24,19.221 66.921,0.581 48.602,-18.059 18.64,-18.319 0,0 M 73.447,74.734 C 50.813,96.979 14.431,96.663 -7.814,74.028 -30.058,51.394 -29.742,15.012 -7.108,-7.232 15.527,-29.477 51.908,-29.161 74.153,-6.527 96.398,16.108 96.082,52.489 73.447,74.734"
             style="fill:#ff7129;fill-opacity:1;fill-rule:nonzero;stroke:none"
             id="path442" />
        </g>
        <g
           id="g444"
           transform="translate(361.7312,119.4712)">
          <path
             d="M 0,0 -44.828,-45.613"
             style="fill:none;stroke:#ffffff;stroke-width:1;stroke-linecap:round;stroke-linejoin:round;stroke-miterlimit:10;stroke-dasharray:none;stroke-opacity:1"
             id="path446" />
        </g>
        <g
           id="g448"
           transform="translate(406.3613,223.0753)">
          <path
             d="M 0,0 C -14.124,1.425 -28.767,-3.45 -39.219,-13.057 -49.67,-22.663 -55.76,-36.844 -55.528,-51.038"
             style="fill:none;stroke:#ffffff;stroke-width:1;stroke-linecap:round;stroke-linejoin:round;stroke-miterlimit:10;stroke-dasharray:none;stroke-opacity:1"
             id="path450" />
        </g>
      </g>
    </g>
  </g>
</svg>
